HIERARCHY
ROOT root
{
	OFFSET 0.000000 0.000000 0.000000
	CHANNELS 6 Xposition Yposition Zposition Zrotation Yrotation Xrotation
	JOINT lhip
	{
		OFFSET 0.058581 -0.082280 -0.017664
		CHANNELS 3 Zrotation Yrotation Xrotation
		JOINT lknee
		{
			OFFSET 0.043451 -0.386469 0.008037
			CHANNELS 3 Zrotation Yrotation Xrotation
			JOINT lankle
			{
				OFFSET -0.014790 -0.426874 -0.037428
				CHANNELS 3 Zrotation Yrotation Xrotation
				JOINT ltoe
				{
					OFFSET 0.041054 -0.060286 0.122042
					CHANNELS 3 Zrotation Yrotation Xrotation
					End Site
					{
						OFFSET 0.000000 0.000000 0.000000
					}
				}
			}
		}
	}
	JOINT rhip
	{
		OFFSET -0.060310 -0.090513 -0.013543
		CHANNELS 3 Zrotation Yrotation Xrotation
		JOINT rknee
		{
			OFFSET -0.043257 -0.383688 -0.004843
			CHANNELS 3 Zrotation Yrotation Xrotation
			JOINT rankle
			{
				OFFSET 0.019056 -0.420046 -0.034562
				CHANNELS 3 Zrotation Yrotation Xrotation
				JOINT rtoe
				{
					OFFSET -0.034840 -0.062106 0.130323
					CHANNELS 3 Zrotation Yrotation Xrotation
					End Site
					{
						OFFSET 0.000000 0.000000 0.000000
					}
				}
			}
		}
	}
	JOINT lowerback
	{
		OFFSET 0.004439 0.124404 -0.038385
		CHANNELS 3 Zrotation Yrotation Xrotation
		JOINT upperback
		{
			OFFSET 0.004488 0.137956 0.026820
			CHANNELS 3 Zrotation Yrotation Xrotation
			JOINT chest
			{
				OFFSET -0.002265 0.056032 0.002855
				CHANNELS 3 Zrotation Yrotation Xrotation
				JOINT lowerneck
				{
					OFFSET -0.013390 0.211636 -0.033468
					CHANNELS 3 Zrotation Yrotation Xrotation
					JOINT upperneck
					{
						OFFSET 0.010113 0.088937 0.050410
						CHANNELS 3 Zrotation Yrotation Xrotation
						End Site
						{
							OFFSET 0.000000 0.000000 0.000000
						}
					}
				}
				JOINT lclavicle
				{
					OFFSET 0.071702 0.114000 -0.018898
					CHANNELS 3 Zrotation Yrotation Xrotation
					JOINT lshoulder
					{
						OFFSET 0.122921 0.045205 -0.019046
						CHANNELS 3 Zrotation Yrotation Xrotation
						JOINT lelbow
						{
							OFFSET 0.255332 -0.015649 -0.022946
							CHANNELS 3 Zrotation Yrotation Xrotation
							JOINT lwrist
							{
								OFFSET 0.265709 0.012698 -0.007375
								CHANNELS 3 Zrotation Yrotation Xrotation
								End Site
								{
									OFFSET 0.000000 0.000000 0.000000
								}
							}
						}
					}
				}
				JOINT rclavicle
				{
					OFFSET -0.082954 0.112472 -0.023707
					CHANNELS 3 Zrotation Yrotation Xrotation
					JOINT rshoulder
					{
						OFFSET -0.113228 0.046853 -0.008472
						CHANNELS 3 Zrotation Yrotation Xrotation
						JOINT relbow
						{
							OFFSET -0.260127 -0.014369 -0.031269
							CHANNELS 3 Zrotation Yrotation Xrotation
							JOINT rwrist
							{
								OFFSET -0.269108 0.006794 -0.006027
								CHANNELS 3 Zrotation Yrotation Xrotation
								End Site
								{
									OFFSET 0.000000 0.000000 0.000000
								}
							}
						}
					}
				}
			}
		}
	}
}
MOTION
Frames: 5
Frame Time: 0.033333
2.374696 1.330945 0.815779 -82.858439 -2.093621 114.199876 9.684547 -1.349617 -65.581846 -4.416974 22.741293 57.505975 11.346270 8.508762 -28.101767 0.000000 -0.000000 0.000000 -6.829200 0.900526 -5.241139 -0.830244 7.808064 50.466266 10.999830 -7.823490 3.916169 0.000000 -0.000000 0.000000 -4.624263 12.136303 30.104678 -1.700148 -1.546496 -9.072591 1.021994 2.928503 -1.828399 -4.596793 -8.378041 -22.038532 5.022429 1.462413 -14.190530 -11.104312 2.101407 8.932963 -52.628806 26.320195 5.463082 -64.659281 -76.503526 86.855903 20.209896 -14.869956 -26.624369 5.054529 11.551506 -4.109993 63.216475 7.869919 13.249613 -122.316967 69.262119 -99.288241 5.951494 10.308264 0.342738 
2.288596 1.306958 0.823459 -76.642670 -2.368394 113.676215 6.814869 -4.377408 -59.712765 -5.540125 18.865003 58.635292 12.586286 9.428767 -33.743764 0.000000 -0.000000 0.000000 -4.785566 2.778210 -14.118598 -1.374829 2.653386 66.429839 5.051951 -11.110158 -9.773330 0.000000 -0.000000 0.000000 -2.457089 7.213493 33.158055 -0.703555 -2.130734 -8.491963 0.315811 1.551102 -2.345595 -3.219591 -6.261875 -25.307114 3.047336 1.143938 -13.355523 -19.484027 -0.074026 6.825909 -52.069603 18.496616 6.813140 -17.118539 -79.124437 37.235015 19.676776 -14.116484 -26.121828 11.870149 11.057388 -1.437661 61.369088 3.467218 13.965923 -93.447106 71.660139 -71.026755 2.957121 9.859704 -3.050873 
2.200461 1.283298 0.827302 -71.175439 -2.605775 112.488591 3.667213 -5.208878 -52.108397 -7.287294 13.785206 59.023384 12.501640 10.387039 -38.431175 0.000000 -0.000000 0.000000 -5.217857 3.483965 -25.915879 -1.482972 -2.042300 79.729201 2.153901 -12.748553 -20.504778 0.000000 -0.000000 0.000000 -1.147381 2.374907 36.226288 0.193022 -2.220034 -8.843781 0.112696 -0.053663 -2.359219 -1.677963 -4.053047 -27.937012 2.312080 1.295237 -12.302695 -26.768263 -3.397510 4.630843 -49.652741 9.586374 9.045186 15.554368 -73.449651 2.380501 19.010684 -14.574547 -22.036372 19.182363 9.952135 0.309235 59.410701 -0.899547 13.840166 -55.108974 65.833914 -37.307622 0.590776 9.254417 -4.970648 
2.082438 1.251546 0.827057 -63.250600 -2.137739 108.864572 1.454551 -3.465623 -40.262032 -10.510038 4.780693 60.444411 9.959540 9.207820 -41.605537 0.000000 -0.000000 0.000000 -7.961832 2.835646 -41.230469 -1.875918 -7.227838 89.007528 1.732706 -11.513425 -28.507668 0.000000 -0.000000 0.000000 0.649804 -4.026143 40.788036 2.024881 -2.448786 -10.028404 1.365074 -2.260905 -2.187300 -1.274073 -2.000070 -28.650209 2.692144 1.421148 -12.283615 -29.292295 -8.107329 3.299022 -51.583015 -0.677187 11.409672 29.844647 -71.334013 -10.170085 19.768989 -14.744583 -18.698111 23.999683 8.308063 2.681955 57.987969 -7.349660 9.973864 -29.940401 51.388910 -19.895920 -3.161983 7.936291 -8.506616 
2.006466 1.230780 0.825057 -58.123303 -1.233691 105.703780 2.252930 -1.251151 -31.519377 -13.272913 -2.037933 60.782126 7.446120 7.429926 -42.365699 0.000000 -0.000000 0.000000 -10.382174 1.027766 -48.770694 -2.493554 -9.360286 89.566995 2.073463 -10.301136 -31.457384 0.000000 -0.000000 0.000000 1.657923 -7.994223 43.304231 3.679750 -2.648672 -10.442813 2.831068 -3.603670 -1.832678 -2.193665 -0.791159 -28.556927 2.954612 1.268846 -12.548044 -26.610150 -9.697730 3.544107 -55.816345 -5.834575 13.167308 45.107880 -77.855733 -21.691114 21.167040 -14.671576 -22.743492 24.004851 6.134955 4.442263 57.141985 -12.132152 6.712152 -22.517211 47.114058 -14.280960 -5.148397 8.276323 -8.919025 
